<svg width="335" height="183" viewBox="0 0 335 183" fill="none" xmlns="http://www.w3.org/2000/svg">
<mask id="path-1-inside-1_51_2525" fill="white">
<path d="M334.635 158.23C302.86 174.082 267.912 182.544 232.405 182.982C196.898 183.42 161.752 175.823 129.596 160.759C97.4395 145.695 69.1064 123.554 46.716 95.9933C24.3255 68.4323 8.45763 36.1649 0.299452 1.6051L2.92879 0.984406C10.9934 35.1477 26.6793 67.045 48.8128 94.2898C70.9464 121.535 98.9545 143.421 130.742 158.312C162.529 173.204 197.272 180.714 232.371 180.281C267.471 179.848 302.018 171.483 333.429 155.812L334.635 158.23Z"/>
</mask>
<path d="M334.635 158.23C302.86 174.082 267.912 182.544 232.405 182.982C196.898 183.42 161.752 175.823 129.596 160.759C97.4395 145.695 69.1064 123.554 46.716 95.9933C24.3255 68.4323 8.45763 36.1649 0.299452 1.6051L2.92879 0.984406C10.9934 35.1477 26.6793 67.045 48.8128 94.2898C70.9464 121.535 98.9545 143.421 130.742 158.312C162.529 173.204 197.272 180.714 232.371 180.281C267.471 179.848 302.018 171.483 333.429 155.812L334.635 158.23Z" stroke="#F8F8F8" stroke-width="5" mask="url(#path-1-inside-1_51_2525)"/>
</svg>
