<svg width="335" height="182" viewBox="0 0 335 182" fill="none" xmlns="http://www.w3.org/2000/svg">
<mask id="path-1-inside-1_51_2526" fill="white">
<path d="M334.635 157.23C302.86 173.082 267.912 181.544 232.405 181.982C196.898 182.42 161.752 174.823 129.596 159.759C97.4395 144.695 69.1064 122.554 46.716 94.9933C24.3255 67.4323 8.45763 35.1649 0.299452 0.605103L1.23617 0.383972C9.36101 34.8025 25.1641 66.9381 47.463 94.3864C69.7619 121.835 97.9792 143.885 130.004 158.887C162.028 173.89 197.031 181.456 232.393 181.02C267.755 180.584 302.56 172.156 334.205 156.368L334.635 157.23Z"/>
</mask>
<path d="M334.635 157.23C302.86 173.082 267.912 181.544 232.405 181.982C196.898 182.42 161.752 174.823 129.596 159.759C97.4395 144.695 69.1064 122.554 46.716 94.9933C24.3255 67.4323 8.45763 35.1649 0.299452 0.605103L1.23617 0.383972C9.36101 34.8025 25.1641 66.9381 47.463 94.3864C69.7619 121.835 97.9792 143.885 130.004 158.887C162.028 173.89 197.031 181.456 232.393 181.02C267.755 180.584 302.56 172.156 334.205 156.368L334.635 157.23Z" stroke="#C5C5C5" stroke-opacity="0.7" stroke-width="5" mask="url(#path-1-inside-1_51_2526)"/>
</svg>
