<svg width="30" height="30" viewBox="0 0 30 30" fill="none" xmlns="http://www.w3.org/2000/svg">
<g clip-path="url(#clip0_51_2782)">
<path d="M25.7812 23.5547H19.6289V18.1765L21.2464 16.559C21.5897 16.2158 21.5897 15.6593 21.2464 15.316C20.9033 14.9729 20.3467 14.9729 20.0035 15.316L18.386 16.9336H11.614L9.9965 15.316C9.65332 14.9729 9.0968 14.9729 8.75355 15.316C8.41031 15.6592 8.41031 16.2157 8.75355 16.559L10.3711 18.1765V23.5547H4.21875C2.44178 23.5547 0.996094 25.0004 0.996094 26.7773C0.996094 28.5543 2.44178 30 4.21875 30H25.7812C27.5582 30 29.0039 28.5543 29.0039 26.7773C29.0039 25.0004 27.5582 23.5547 25.7812 23.5547ZM12.131 25.3125C11.9055 25.7523 11.7773 26.25 11.7773 26.7773C11.7773 27.3047 11.9055 27.8023 12.131 28.2422H7.08779C7.31326 27.8023 7.44141 27.3047 7.44141 26.7773C7.44141 26.25 7.31326 25.7523 7.08779 25.3125H12.131ZM13.5352 26.7773C13.5352 25.9696 14.1923 25.3125 15 25.3125C15.8077 25.3125 16.4648 25.9696 16.4648 26.7773C16.4648 27.585 15.8077 28.2422 15 28.2422C14.1923 28.2422 13.5352 27.585 13.5352 26.7773ZM17.869 25.3125H22.9122C22.6867 25.7523 22.5586 26.25 22.5586 26.7773C22.5586 27.3047 22.6867 27.8023 22.9122 28.2422H17.869C18.0945 27.8023 18.2227 27.3047 18.2227 26.7773C18.2227 26.25 18.0945 25.7523 17.869 25.3125ZM12.1289 18.6914H17.8711V23.5547H12.1289V18.6914ZM2.75391 26.7773C2.75391 25.9696 3.41104 25.3125 4.21875 25.3125C5.02646 25.3125 5.68359 25.9696 5.68359 26.7773C5.68359 27.585 5.02646 28.2422 4.21875 28.2422C3.41104 28.2422 2.75391 27.585 2.75391 26.7773ZM25.7812 28.2422C24.9735 28.2422 24.3164 27.585 24.3164 26.7773C24.3164 25.9696 24.9735 25.3125 25.7812 25.3125C26.589 25.3125 27.2461 25.9696 27.2461 26.7773C27.2461 27.585 26.589 28.2422 25.7812 28.2422Z" fill="#3C3C3C"/>
<path d="M1.875 1.75781H11.5213L12.2788 4.45629C12.3853 4.83551 12.7311 5.09766 13.125 5.09766H14.1211V6.74391C12.7701 7.12752 11.7773 8.37146 11.7773 9.84375C11.7773 10.4416 11.9389 11.014 12.2461 11.5172V14.5312C12.2461 15.0166 12.6396 15.4102 13.125 15.4102H16.875C17.3604 15.4102 17.7539 15.0166 17.7539 14.5312V11.5172C18.0611 11.014 18.2227 10.4416 18.2227 9.84375C18.2227 8.37146 17.2299 7.12758 15.8789 6.74391V5.09766H16.875C17.2689 5.09766 17.6147 4.83551 17.7212 4.45629L18.4787 1.75781H28.125C28.6104 1.75781 29.0039 1.3643 29.0039 0.878906C29.0039 0.393516 28.6104 0 28.125 0H1.875C1.38961 0 0.996094 0.393516 0.996094 0.878906C0.996094 1.3643 1.38961 1.75781 1.875 1.75781ZM15.9961 13.6523H14.0039V11.6602H15.9961V13.6523ZM16.4648 9.84375C16.4648 9.86338 16.4633 9.88283 16.4625 9.90234H13.5375C13.5367 9.88283 13.5352 9.86338 13.5352 9.84375C13.5352 9.03604 14.1923 8.37891 15 8.37891C15.8077 8.37891 16.4648 9.03604 16.4648 9.84375ZM16.2088 3.33984H13.7912L13.3471 1.75781H16.6529L16.2088 3.33984Z" fill="#3C3C3C"/>
</g>
<defs>
<clipPath id="clip0_51_2782">
<rect width="30" height="30" fill="white"/>
</clipPath>
</defs>
</svg>
