<svg width="31" height="30" viewBox="0 0 31 30" fill="none" xmlns="http://www.w3.org/2000/svg">
<path d="M9.38943 18.0835L9.01477 16.0845C8.98524 15.927 8.91185 15.7811 8.80304 15.6634C8.69423 15.5458 8.55442 15.4612 8.3997 15.4195C7.92448 15.2919 7.46783 15.1031 7.04121 14.8579C6.90214 14.7781 6.74342 14.7391 6.58321 14.7453C6.42301 14.7515 6.26778 14.8027 6.13531 14.893L4.45797 16.0406L3.74569 15.3283L4.89296 13.6512C4.98351 13.5188 5.03485 13.3636 5.04107 13.2033C5.0473 13.0431 5.00815 12.8843 4.92814 12.7453C4.68303 12.3188 4.49439 11.8622 4.36699 11.3871C4.32524 11.2323 4.24067 11.0924 4.123 10.9835C4.00532 10.8746 3.85932 10.8011 3.70175 10.7715L1.70298 10.3968V9.38962L3.70175 9.01496C3.85935 8.9854 4.0054 8.91193 4.12308 8.80303C4.24077 8.69412 4.32531 8.5542 4.36699 8.39936C4.49438 7.9242 4.68301 7.46762 4.92814 7.04111C5.00815 6.90211 5.0473 6.74335 5.04107 6.58309C5.03485 6.42284 4.98351 6.26759 4.89296 6.13522L3.74569 4.45797L4.45773 3.74574L6.13517 4.89326C6.2675 4.9839 6.42276 5.0353 6.58305 5.04152C6.74333 5.04773 6.9021 5.00851 7.04106 4.92839C7.46769 4.68321 7.92434 4.49441 8.39955 4.36674C8.55426 4.32502 8.69405 4.24048 8.80284 4.12284C8.91163 4.0052 8.98501 3.85924 9.01453 3.70175L9.38918 1.70298H10.3964L10.771 3.70175C10.8006 3.85925 10.8739 4.00522 10.9828 4.12286C11.0916 4.2405 11.2314 4.32504 11.3861 4.36674C11.8613 4.49441 12.318 4.68321 12.7446 4.92839C12.8836 5.00841 13.0423 5.04757 13.2026 5.04136C13.3629 5.03514 13.5181 4.98381 13.6505 4.89326L15.3278 3.74574L16.0399 4.45797L14.893 6.13507C14.8025 6.26744 14.7511 6.42269 14.7449 6.58295C14.7387 6.74321 14.7778 6.90197 14.8579 7.04096C15.1029 7.46748 15.2915 7.92406 15.4189 8.39921C15.4605 8.55405 15.5451 8.69397 15.6628 8.80288C15.7805 8.91179 15.9265 8.98525 16.0841 9.01482L18.0829 9.38947V9.64371C18.0829 9.86953 18.1726 10.0861 18.3323 10.2458C18.4919 10.4055 18.7085 10.4952 18.9344 10.4952C19.1602 10.4952 19.3768 10.4055 19.5365 10.2458C19.6961 10.0861 19.7858 9.86953 19.7858 9.64371V8.68288C19.7859 8.4843 19.7164 8.29196 19.5896 8.13914C19.4628 7.98631 19.2866 7.88262 19.0914 7.84599L16.9029 7.43562C16.8123 7.17597 16.7072 6.9216 16.5881 6.6737L17.8449 4.83623C17.9571 4.67237 18.0084 4.47444 17.99 4.27672C17.9717 4.07899 17.8847 3.89393 17.7442 3.75357L16.0327 2.04202C15.8923 1.90158 15.7072 1.81464 15.5094 1.79625C15.3117 1.77786 15.1137 1.82917 14.9498 1.9413L13.1125 3.19835C12.8647 3.07927 12.6104 2.97416 12.3509 2.88354L11.9399 0.694477C11.9033 0.499292 11.7996 0.323046 11.6468 0.196229C11.494 0.0694111 11.3016 -1.16415e-06 11.103 0H8.68288C8.48429 -1.16415e-06 8.29195 0.0694111 8.13912 0.196229C7.9863 0.323046 7.88261 0.499292 7.84599 0.694477L7.43542 2.88354C7.17585 2.97416 6.92156 3.07927 6.67375 3.19835L4.83604 1.9413C4.67212 1.82917 4.47416 1.77786 4.27641 1.79625C4.07866 1.81464 3.89356 1.90158 3.75313 2.04202L2.04202 3.75357C1.90154 3.89392 1.81457 4.07898 1.79617 4.27671C1.77776 4.47443 1.82909 4.67236 1.94126 4.83623L3.19806 6.6737C3.079 6.9216 2.97392 7.17597 2.8833 7.43562L0.694428 7.84589C0.499252 7.88252 0.323018 7.98622 0.19621 8.13904C0.069402 8.29186 -3.29335e-06 8.4842 1.17215e-10 8.68278V11.1034C-3.29335e-06 11.302 0.069402 11.4943 0.19621 11.6472C0.323018 11.8 0.499252 11.9037 0.694428 11.9403L2.8833 12.3506C2.97393 12.6102 3.07901 12.8646 3.19806 13.1125L1.94126 14.95C1.82909 15.1138 1.77776 15.3118 1.79617 15.5095C1.81457 15.7072 1.90154 15.8923 2.04202 16.0326L3.75328 17.7442C3.8937 17.8846 4.07881 17.9715 4.27656 17.9899C4.47431 18.0083 4.67226 17.957 4.83618 17.8449L6.67365 16.5878C6.92146 16.7069 7.17575 16.812 7.43532 16.9026L7.84589 19.0917C7.88251 19.2869 7.9862 19.4631 8.13902 19.59C8.29185 19.7168 8.48419 19.7862 8.68278 19.7862H9.36884C9.59467 19.7889 9.81233 19.7018 9.97393 19.544C10.1355 19.3862 10.2278 19.1707 10.2306 18.9449C10.2333 18.7191 10.1462 18.5014 9.98838 18.3398C9.83061 18.1782 9.61526 18.0863 9.38943 18.0835Z" fill="#3C3C3C"/>
<path d="M9.89312 6.31398C9.18522 6.31398 8.49322 6.5239 7.90463 6.91718C7.31604 7.31047 6.85728 7.86946 6.58638 8.52347C6.31548 9.17748 6.2446 9.89714 6.38271 10.5914C6.52081 11.2857 6.8617 11.9235 7.36225 12.424C7.86281 12.9246 8.50056 13.2655 9.19485 13.4036C9.88915 13.5417 10.6088 13.4708 11.2628 13.1999C11.9168 12.929 12.4758 12.4703 12.8691 11.8817C13.2624 11.2931 13.4723 10.6011 13.4723 9.89317C13.4712 8.94425 13.0938 8.03451 12.4228 7.36352C11.7518 6.69254 10.842 6.31509 9.89312 6.31398ZM9.89312 11.7693C9.52204 11.7693 9.15929 11.6593 8.85075 11.4531C8.54221 11.247 8.30173 10.9539 8.15973 10.6111C8.01773 10.2683 7.98057 9.89102 8.05297 9.52707C8.12537 9.16312 8.30407 8.82882 8.56646 8.56643C8.82886 8.30404 9.16317 8.12535 9.52712 8.05296C9.89107 7.98057 10.2683 8.01774 10.6111 8.15975C10.954 8.30176 11.247 8.54225 11.4531 8.85079C11.6593 9.15934 11.7693 9.52209 11.7693 9.89317C11.7687 10.3906 11.5708 10.8674 11.2191 11.2192C10.8674 11.5709 10.3905 11.7687 9.89312 11.7693Z" fill="#3C3C3C"/>
<path d="M29.3819 26.1774L26.7569 23.5525C27.7165 21.8289 28.0205 19.8165 27.613 17.8863C27.2055 15.9562 26.114 14.2384 24.5396 13.0498C22.9652 11.8612 21.0142 11.2818 19.0463 11.4185C17.0783 11.5552 15.2261 12.3988 13.8312 13.7937C12.4364 15.1887 11.5928 17.0408 11.4561 19.0088C11.3194 20.9767 11.8988 22.9277 13.0875 24.5021C14.2761 26.0765 15.9939 27.168 17.9241 27.5755C19.8542 27.9829 21.8666 27.6788 23.5902 26.7193L26.215 29.3441C26.6349 29.764 27.2045 30 27.7984 30C28.3923 30 28.9618 29.7641 29.3818 29.3442C29.8018 28.9243 30.0377 28.3547 30.0377 27.7608C30.0378 27.1669 29.8019 26.5974 29.3819 26.1774ZM15.0448 24.1577C14.14 23.2529 13.5237 22.1 13.2741 20.8448C13.0244 19.5897 13.1525 18.2888 13.6423 17.1065C14.132 15.9242 14.9613 14.9136 16.0253 14.2027C17.0894 13.4917 18.3403 13.1122 19.6201 13.1122C20.8998 13.1122 22.1507 13.4917 23.2148 14.2027C24.2788 14.9136 25.1081 15.9242 25.5978 17.1065C26.0876 18.2888 26.2157 19.5897 25.966 20.8448C25.7164 22.1 25.1002 23.2529 24.1953 24.1577C22.9809 25.3693 21.3355 26.0497 19.6201 26.0497C17.9046 26.0497 16.2592 25.3693 15.0448 24.1577ZM28.1779 28.1401C28.0756 28.2376 27.9397 28.292 27.7983 28.292C27.657 28.292 27.5211 28.2376 27.4188 28.1401L25.0006 25.7218C25.1347 25.604 25.271 25.4897 25.3991 25.3618C25.5271 25.2338 25.6415 25.0974 25.7591 24.9631L28.1774 27.3813C28.2779 27.4819 28.3344 27.6183 28.3345 27.7606C28.3346 27.9028 28.2783 28.0393 28.1779 28.1401Z" fill="#3C3C3C"/>
<path d="M24.5502 17.7908C24.5135 17.6838 24.4558 17.5853 24.3805 17.5009C24.3053 17.4165 24.214 17.348 24.1119 17.2992C24.0099 17.2505 23.8992 17.2226 23.7862 17.2171C23.6733 17.2116 23.5604 17.2287 23.4541 17.2673C23.3479 17.3059 23.2503 17.3653 23.1673 17.4421C23.0842 17.5188 23.0173 17.6113 22.9703 17.7141C22.9234 17.817 22.8974 17.9282 22.8939 18.0412C22.8904 18.1542 22.9094 18.2668 22.9499 18.3724C23.222 19.121 23.2338 19.9395 22.9834 20.6957C22.7331 21.4519 22.2352 22.1017 21.5701 22.5401C20.905 22.9785 20.1116 23.1799 19.318 23.1119C18.5243 23.0439 17.7768 22.7104 17.196 22.1652C16.6152 21.6201 16.2351 20.8951 16.1171 20.1073C15.999 19.3195 16.1499 18.515 16.5454 17.8235C16.9409 17.1321 17.5579 16.5941 18.2967 16.2965C19.0356 15.9988 19.8532 15.9589 20.6175 16.1831C20.7248 16.2147 20.8372 16.2248 20.9484 16.213C21.0596 16.2011 21.1674 16.1675 21.2656 16.114C21.3638 16.0605 21.4505 15.9882 21.5207 15.9012C21.591 15.8142 21.6434 15.7142 21.675 15.6069C21.7066 15.4997 21.7168 15.3872 21.7049 15.2761C21.6931 15.1649 21.6595 15.0571 21.606 14.9589C21.5525 14.8607 21.4802 14.774 21.3932 14.7037C21.3062 14.6335 21.2062 14.5811 21.0989 14.5495C19.967 14.2168 18.7561 14.2754 17.6616 14.7157C16.5671 15.156 15.6529 15.9524 15.0668 16.9763C14.4807 18.0001 14.2567 19.1917 14.4312 20.3584C14.6056 21.5252 15.1683 22.5991 16.0282 23.4068C16.8882 24.2144 17.9953 24.7086 19.1707 24.8096C20.3461 24.9105 21.5213 24.6123 22.5064 23.9632C23.4914 23.314 24.229 22.3517 24.5998 21.2318C24.9707 20.1118 24.9532 18.8996 24.5502 17.7908Z" fill="#3C3C3C"/>
</svg>
