<svg width="30" height="30" viewBox="0 0 30 30" fill="none" xmlns="http://www.w3.org/2000/svg">
<mask id="mask0_51_2805" style="mask-type:luminance" maskUnits="userSpaceOnUse" x="0" y="0" width="30" height="30">
<path d="M29 29V1H1V29H29Z" fill="white" stroke="white" stroke-width="2"/>
</mask>
<g mask="url(#mask0_51_2805)">
<path d="M18.5742 22.0898C18.5742 23.0607 19.3612 23.8477 20.332 23.8477C21.3028 23.8477 22.0898 23.0607 22.0898 22.0898C22.0898 21.1191 21.3028 20.332 20.332 20.332C19.3612 20.332 18.5742 19.5451 18.5742 18.5742C18.5742 17.6034 19.3612 16.8164 20.332 16.8164C21.3028 16.8164 22.0898 17.5917 22.0898 18.5625" stroke="#3C3C3C" stroke-width="2" stroke-miterlimit="10"/>
<path d="M20.332 14.1797V16.8164" stroke="#3C3C3C" stroke-width="2" stroke-miterlimit="10"/>
<path d="M20.332 23.8477V26.4727" stroke="#3C3C3C" stroke-width="2" stroke-miterlimit="10"/>
<path d="M29.1211 20.332C29.1211 25.1861 25.1861 29.1211 20.332 29.1211C15.4779 29.1211 11.543 25.1861 11.543 20.332C11.543 15.4779 15.4779 11.543 20.332 11.543C25.1861 11.543 29.1211 15.4779 29.1211 20.332Z" stroke="#3C3C3C" stroke-width="2" stroke-miterlimit="10"/>
<path d="M18.5742 5.27344C18.5742 7.70045 14.6392 9.66797 9.78516 9.66797C4.93107 9.66797 0.878906 7.70045 0.878906 5.27344C0.878906 2.84643 4.93107 0.878906 9.78516 0.878906C14.6392 0.878906 18.5742 2.84643 18.5742 5.27344Z" stroke="#3C3C3C" stroke-width="2" stroke-miterlimit="10"/>
<path d="M13.6611 14.6093C12.492 14.897 11.1763 15.0586 9.78516 15.0586C4.93107 15.0586 0.878906 13.0911 0.878906 10.6641" stroke="#3C3C3C" stroke-width="2" stroke-miterlimit="10"/>
<path d="M0.878906 5.27344V21.2109C0.878906 23.6379 4.93107 25.6055 9.78516 25.6055C10.9474 25.6055 12.0569 25.4927 13.0724 25.2878" stroke="#3C3C3C" stroke-width="2" stroke-miterlimit="10"/>
<path d="M18.5742 5.27344V11.7188" stroke="#3C3C3C" stroke-width="2" stroke-miterlimit="10"/>
<path d="M11.5434 20.2441C10.9753 20.3017 10.3873 20.332 9.78516 20.332C4.93107 20.332 0.878906 18.3645 0.878906 15.9375" stroke="#3C3C3C" stroke-width="2" stroke-miterlimit="10"/>
</g>
</svg>
