<svg width="30" height="30" viewBox="0 0 30 30" fill="none" xmlns="http://www.w3.org/2000/svg">
<path d="M18.2793 24.2559C18.7971 24.2559 19.2168 23.8362 19.2168 23.3184C19.2168 22.8007 18.7971 22.3809 18.2793 22.3809C17.7615 22.3809 17.3418 22.8007 17.3418 23.3184C17.3418 23.8362 17.7615 24.2559 18.2793 24.2559Z" fill="#3C3C3C"/>
<path d="M23.3999 24.2559C23.9177 24.2559 24.3374 23.8362 24.3374 23.3184C24.3374 22.8007 23.9177 22.3809 23.3999 22.3809C22.8821 22.3809 22.4624 22.8007 22.4624 23.3184C22.4624 23.8362 22.8821 24.2559 23.3999 24.2559Z" fill="#3C3C3C"/>
<path d="M24.7723 29.0625H16.8888C15.5398 29.0625 14.3388 28.1569 13.9685 26.8594L12.957 23.3231C12.6935 22.3978 12.8735 21.4275 13.452 20.6588C14.0313 19.8909 14.9163 19.4503 15.8782 19.4503H25.7838C26.7457 19.4503 27.6298 19.8909 28.2092 20.6588C28.7876 21.4256 28.9685 22.3969 28.7042 23.3222L27.6926 26.8603C27.3213 28.1569 26.1204 29.0625 24.7723 29.0625ZM15.8782 21.3253C15.5098 21.3253 15.1713 21.4941 14.9501 21.7875C14.7288 22.0809 14.6585 22.4531 14.7607 22.8075L15.7723 26.3438C15.9129 26.8406 16.3732 27.1866 16.8888 27.1866H24.7723C25.2888 27.1866 25.7482 26.8406 25.8888 26.3447L26.9004 22.8066C27.0017 22.4531 26.9332 22.0819 26.712 21.7875C26.4907 21.4931 26.1513 21.3253 25.7838 21.3253H15.8782Z" fill="#3C3C3C"/>
<path d="M24.5314 21.3253H17.1289V17.6241C17.1289 15.5831 18.7892 13.9238 20.8302 13.9238C22.8711 13.9238 24.5305 15.5841 24.5305 17.6241L24.5314 21.3253ZM19.0039 19.4503H22.6564V17.6241C22.6564 16.6181 21.837 15.7988 20.8311 15.7988C19.8252 15.7988 19.0048 16.6181 19.0048 17.6241L19.0039 19.4503Z" fill="#3C3C3C"/>
<path d="M11.25 12.1875C8.14781 12.1875 5.625 9.66469 5.625 6.5625C5.625 3.46031 8.14781 0.9375 11.25 0.9375C14.3522 0.9375 16.875 3.46031 16.875 6.5625C16.875 9.66469 14.3522 12.1875 11.25 12.1875ZM11.25 2.8125C9.18187 2.8125 7.5 4.49437 7.5 6.5625C7.5 8.63063 9.18187 10.3125 11.25 10.3125C13.3181 10.3125 15 8.63063 15 6.5625C15 4.49437 13.3181 2.8125 11.25 2.8125Z" fill="#3C3C3C"/>
<path d="M3.72937 28.9865C2.0775 28.6481 0.9375 27.1134 0.9375 25.4268V20.9344C0.9375 15.7856 4.58344 11.2003 9.67406 10.4325C12.4772 10.0097 15.2503 10.7306 17.4422 12.3787C17.8884 12.7143 17.9512 13.364 17.5716 13.7747C17.2481 14.1243 16.7119 14.1768 16.3312 13.889C14.7197 12.6712 12.72 12.0675 10.6631 12.2081C6.18937 12.5147 2.8125 16.4297 2.8125 20.9137V25.4353C2.8125 26.2622 3.37594 27.03 4.19156 27.165C5.22937 27.3356 6.12937 26.5359 6.12937 25.529V21.3262C6.12937 20.8087 6.54937 20.3887 7.06687 20.3887C7.58437 20.3887 8.00437 20.8087 8.00437 21.3262V25.529C8.00437 27.72 6.00094 29.4515 3.72937 28.9865Z" fill="#3C3C3C"/>
<path d="M11.7205 29.0625H4.57959V27.1875H11.7205C12.238 27.1875 12.658 27.6075 12.658 28.125C12.658 28.6425 12.238 29.0625 11.7205 29.0625Z" fill="#3C3C3C"/>
</svg>
