<svg width="30" height="30" viewBox="0 0 30 30" fill="none" xmlns="http://www.w3.org/2000/svg">
<g clip-path="url(#clip0_51_2792)">
<path d="M24.747 5.4917C25.1741 5.73434 25.6672 5.87373 26.1926 5.87373C27.812 5.87373 29.1295 4.55625 29.1295 2.93689C29.1295 1.31748 27.812 0 26.1926 0C24.5733 0 23.2558 1.31748 23.2558 2.93689C23.2558 3.38795 23.3583 3.81545 23.5407 4.19771L20.3705 6.59859C19.902 6.28207 19.3376 6.09709 18.7308 6.09709C18.1386 6.09709 17.5871 6.27387 17.1254 6.57656L14.0172 4.03342C14.1387 3.71156 14.2057 3.36322 14.2057 2.99936C14.2057 1.38 12.8882 0.0625195 11.2689 0.0625195C9.64951 0.0625195 8.33203 1.38 8.33203 2.99936C8.33203 3.4098 8.41699 3.80074 8.56975 4.15588L4.50943 8.42731C4.2842 8.37182 4.04906 8.34176 3.80695 8.34176C2.1876 8.34176 0.870117 9.65924 0.870117 11.2786C0.870117 12.8979 2.1876 14.2154 3.80695 14.2154C5.42631 14.2154 6.74379 12.8979 6.74379 11.2786C6.74379 10.5517 6.47777 9.88623 6.03873 9.37283L9.72422 5.49574C10.1733 5.77465 10.7024 5.93625 11.2689 5.93625C11.8856 5.93625 12.4581 5.74477 12.9312 5.41875L16.0076 7.93594C15.8703 8.27537 15.7939 8.6458 15.7939 9.03393C15.7939 10.6533 17.1114 11.9708 18.7307 11.9708C20.3501 11.9708 21.6676 10.6533 21.6676 9.03393C21.6676 8.66033 21.5967 8.3032 21.4689 7.97426L24.747 5.4917ZM26.1926 1.7598C26.8417 1.7598 27.3697 2.28779 27.3697 2.93689C27.3697 3.58588 26.8417 4.11387 26.1926 4.11387C25.5437 4.11387 25.0156 3.58588 25.0156 2.93689C25.0157 2.28785 25.5437 1.7598 26.1926 1.7598ZM3.80695 12.4556C3.15797 12.4556 2.62992 11.9276 2.62992 11.2786C2.62992 10.6296 3.15791 10.1016 3.80695 10.1016C4.45594 10.1016 4.98398 10.6296 4.98398 11.2786C4.98398 11.9276 4.45594 12.4556 3.80695 12.4556ZM11.2689 4.17639C10.6199 4.17639 10.0918 3.6484 10.0918 2.99936C10.0918 2.35031 10.6198 1.82238 11.2689 1.82238C11.9179 1.82238 12.4459 2.35037 12.4459 2.99936C12.4459 3.64834 11.9179 4.17639 11.2689 4.17639ZM18.7308 10.2108C18.0818 10.2108 17.5538 9.68285 17.5538 9.03387C17.5538 8.38488 18.0817 7.85684 18.7308 7.85684C19.3798 7.85684 19.9078 8.38482 19.9078 9.03387C19.9078 9.68291 19.3798 10.2108 18.7308 10.2108Z" fill="#3C3C3C"/>
<path d="M26.1416 11.3458C24.5588 11.3458 23.271 12.6335 23.271 14.2163V30H29.0122V14.2163C29.0122 12.6335 27.7244 11.3458 26.1416 11.3458ZM27.2523 28.2402H25.0308V14.2163C25.0308 13.6039 25.5291 13.1056 26.1415 13.1056C26.754 13.1056 27.2523 13.6039 27.2523 14.2163L27.2523 28.2402Z" fill="#3C3C3C"/>
<path d="M18.7309 18.5357C17.1481 18.5357 15.8604 19.8234 15.8604 21.4063V30H21.6015V21.4063C21.6015 19.8234 20.3138 18.5357 18.7309 18.5357ZM19.8417 28.2401H17.6202V21.4063C17.6202 20.7938 18.1184 20.2955 18.7309 20.2955C19.3433 20.2955 19.8416 20.7938 19.8416 21.4063L19.8417 28.2401Z" fill="#3C3C3C"/>
<path d="M11.2232 13.6923C9.64031 13.6923 8.35254 14.98 8.35254 16.5629V30H14.0938V16.5629C14.0938 14.9801 12.8061 13.6923 11.2232 13.6923ZM12.334 28.2402H10.1124V16.5629C10.1124 15.9505 10.6107 15.4522 11.2232 15.4522C11.8356 15.4522 12.3339 15.9505 12.3339 16.5629V28.2402H12.334Z" fill="#3C3C3C"/>
<path d="M3.81203 21.1715C2.22918 21.1715 0.941406 22.4592 0.941406 24.0421V30H6.6826V24.0421C6.6826 22.4592 5.39482 21.1715 3.81203 21.1715ZM4.92273 28.2401H2.70127V24.0421C2.70127 23.4296 3.19955 22.9313 3.81203 22.9313C4.42445 22.9313 4.92273 23.4296 4.92273 24.0421V28.2401Z" fill="#3C3C3C"/>
</g>
<defs>
<clipPath id="clip0_51_2792">
<rect width="30" height="30" fill="white"/>
</clipPath>
</defs>
</svg>
