<svg width="32" height="30" viewBox="0 0 32 30" fill="none" xmlns="http://www.w3.org/2000/svg">
<path d="M21.0549 24.3491C20.9358 24.3488 20.8178 24.372 20.7077 24.4175C20.5976 24.4629 20.4975 24.5297 20.4133 24.6139C20.329 24.6981 20.2623 24.7982 20.2168 24.9083C20.1714 25.0184 20.1482 25.1364 20.1485 25.2555V27.7003C20.1485 27.7642 20.136 27.8276 20.1116 27.8867C20.0871 27.9458 20.0512 27.9995 20.006 28.0447C19.9608 28.0899 19.9071 28.1258 19.848 28.1502C19.7889 28.1747 19.7256 28.1872 19.6616 28.1872H2.29454C2.16618 28.1862 2.04341 28.1345 1.95313 28.0432C1.86285 27.952 1.8124 27.8286 1.81284 27.7003V8.51111H6.22313C6.82901 8.51039 7.40987 8.2694 7.8383 7.84098C8.26672 7.41257 8.50773 6.83171 8.50846 6.22583V1.81285H19.6616C19.7256 1.81278 19.7889 1.82533 19.848 1.84977C19.9071 1.87422 19.9608 1.91008 20.006 1.9553C20.0512 2.00053 20.0871 2.05423 20.1116 2.11333C20.136 2.17243 20.1485 2.23577 20.1485 2.29973V7.10636C20.1485 7.34676 20.244 7.57731 20.414 7.7473C20.5839 7.91728 20.8145 8.01278 21.0549 8.01278C21.2953 8.01278 21.5258 7.91728 21.6958 7.7473C21.8658 7.57731 21.9613 7.34676 21.9613 7.10636V2.29973C21.9609 1.68992 21.7185 1.1052 21.2873 0.674005C20.8561 0.242806 20.2714 0.000391513 19.6616 7.31396e-06H7.60359C7.55139 -0.000222957 7.49932 0.00498469 7.4482 0.015546V0.0181875C7.264 0.0486372 7.09379 0.135506 6.96106 0.266806L0.263639 6.96382C0.117596 7.11289 0.0282112 7.3083 0.0109288 7.51627C0.00477141 7.54501 0.00111483 7.57423 0 7.6036V27.7003C8.05515e-05 28.3093 0.241687 28.8934 0.671832 29.3245C1.10198 29.7556 1.68554 29.9985 2.29454 30H19.6616C20.2714 29.9996 20.8561 29.7572 21.2873 29.326C21.7185 28.8948 21.9609 28.3101 21.9613 27.7003V25.2555C21.9616 25.1364 21.9384 25.0184 21.8929 24.9083C21.8475 24.7982 21.7808 24.6981 21.6965 24.6139C21.6123 24.5297 21.5122 24.4629 21.4021 24.4175C21.292 24.372 21.174 24.3488 21.0549 24.3491ZM6.69561 3.09583V6.22583C6.69546 6.35109 6.64563 6.47118 6.55706 6.55974C6.46848 6.64831 6.34839 6.69812 6.22313 6.69826H3.09318L6.69561 3.09583Z" fill="#3C3C3C"/>
<path d="M17.0158 10.8854H4.94446C4.70406 10.8854 4.47351 10.9809 4.30352 11.1509C4.13353 11.3209 4.03803 11.5514 4.03803 11.7918C4.03803 12.0322 4.13353 12.2628 4.30352 12.4328C4.47351 12.6028 4.70406 12.6983 4.94446 12.6983H17.0158C17.2562 12.6983 17.4867 12.6028 17.6567 12.4328C17.8267 12.2628 17.9222 12.0322 17.9222 11.7918C17.9222 11.5514 17.8267 11.3209 17.6567 11.1509C17.4867 10.9809 17.2562 10.8854 17.0158 10.8854Z" fill="#3C3C3C"/>
<path d="M17.0158 14.0933H4.94446C4.70406 14.0933 4.47351 14.1888 4.30352 14.3588C4.13353 14.5287 4.03803 14.7593 4.03803 14.9997C4.03803 15.2401 4.13353 15.4706 4.30352 15.6406C4.47351 15.8106 4.70406 15.9061 4.94446 15.9061H17.0158C17.2562 15.9061 17.4867 15.8106 17.6567 15.6406C17.8267 15.4706 17.9222 15.2401 17.9222 14.9997C17.9222 14.7593 17.8267 14.5287 17.6567 14.3588C17.4867 14.1888 17.2562 14.0933 17.0158 14.0933Z" fill="#3C3C3C"/>
<path d="M12.9222 17.3012H4.94446C4.70406 17.3012 4.47351 17.3967 4.30352 17.5667C4.13353 17.7366 4.03803 17.9672 4.03803 18.2076C4.03803 18.448 4.13353 18.6785 4.30352 18.8485C4.47351 19.0185 4.70406 19.114 4.94446 19.114H12.9222C13.1626 19.114 13.3931 19.0185 13.5631 18.8485C13.7331 18.6785 13.8286 18.448 13.8286 18.2076C13.8286 17.9672 13.7331 17.7366 13.5631 17.5667C13.3931 17.3967 13.1626 17.3012 12.9222 17.3012Z" fill="#3C3C3C"/>
<path d="M9.51148 21.3704C9.28649 21.2503 9.03304 21.1938 8.77835 21.2069C8.52365 21.22 8.27733 21.3023 8.06586 21.4448L4.96921 23.5278C4.77027 23.6622 4.63277 23.87 4.58688 24.1056C4.54099 24.3413 4.59046 24.5855 4.72444 24.7847C4.85842 24.9839 5.06595 25.1219 5.30151 25.1682C5.53706 25.2146 5.7814 25.1656 5.98089 25.0321L8.51369 23.3285C8.64471 23.8583 8.94924 24.329 9.37879 24.6657C9.80833 25.0024 10.3382 25.1857 10.884 25.1863H12.9224C13.1628 25.1863 13.3933 25.0908 13.5633 24.9208C13.7333 24.7509 13.8288 24.5203 13.8288 24.2799C13.8288 24.0395 13.7333 23.809 13.5633 23.639C13.3933 23.469 13.1628 23.3735 12.9224 23.3735H10.8838C10.7173 23.3732 10.5578 23.307 10.4402 23.1894C10.3225 23.0717 10.2563 22.9122 10.256 22.7458V22.6111C10.2563 22.3562 10.1871 22.106 10.0559 21.8874C9.92476 21.6689 9.73654 21.4901 9.51148 21.3704Z" fill="#3C3C3C"/>
<path d="M17.0158 23.3735H15.7219C15.4815 23.3735 15.2509 23.469 15.0809 23.639C14.9109 23.809 14.8154 24.0395 14.8154 24.2799C14.8154 24.5203 14.9109 24.7509 15.0809 24.9208C15.2509 25.0908 15.4815 25.1863 15.7219 25.1863H17.0158C17.2562 25.1863 17.4867 25.0908 17.6567 24.9208C17.8267 24.7509 17.9222 24.5203 17.9222 24.2799C17.9222 24.0395 17.8267 23.809 17.6567 23.639C17.4867 23.469 17.2562 23.3735 17.0158 23.3735Z" fill="#3C3C3C"/>
<path d="M29.4143 2.78376C28.4901 2.38575 27.4457 2.37043 26.5102 2.74115C25.5746 3.11188 24.8242 3.8384 24.4234 4.76147L24.0033 5.7329L24.0026 5.73419L24.0022 5.73554L19.0712 17.1363C18.9817 17.3435 18.9727 17.5767 19.046 17.7903L20.44 21.8464C20.4809 21.9657 20.5463 22.0751 20.6319 22.1677C20.7176 22.2602 20.8216 22.3339 20.9373 22.384C21.053 22.4341 21.1779 22.4595 21.304 22.4585C21.4301 22.4576 21.5546 22.4303 21.6696 22.3785L25.5802 20.6163C25.7861 20.5232 25.95 20.3567 26.04 20.1494L30.9709 8.74812V8.74729L31.3916 7.77463C31.7898 6.85044 31.8053 5.80605 31.4346 4.87047C31.064 3.93488 30.3375 3.18446 29.4143 2.78376ZM28.6944 4.4479C29.1768 4.65707 29.5566 5.04908 29.7503 5.53792C29.944 6.02675 29.9359 6.57248 29.7278 7.05534L29.6668 7.19638L26.0266 5.62179L26.0874 5.48127C26.2965 4.9988 26.6885 4.61901 27.1773 4.42527C27.6662 4.23153 28.2115 4.23967 28.6944 4.4479ZM25.1462 17.6492L21.5055 16.0747L25.3073 7.28578L28.9475 8.86036L25.1462 17.6492ZM20.973 17.8195L24.2391 19.2321L21.8318 20.3173L20.973 17.8195Z" fill="#3C3C3C"/>
</svg>
