<svg width="45" height="40" viewBox="0 0 45 40" fill="none" xmlns="http://www.w3.org/2000/svg">
<path d="M7.15835 24.2187C6.62771 23.9119 5.88104 24.0557 5.47717 24.7112L0.220769 33.4024C0.077094 33.6399 0 33.92 0 34.2058V38.5514C0 39.351 0.588717 39.9999 1.3141 39.9999H6.57051C7.29589 39.9999 7.88461 39.351 7.88461 38.5514V25.5146C7.88461 24.5815 7.16711 24.2279 7.15835 24.2187Z" fill="white"/>
<path d="M17.1102 39.9999H11.8538C11.128 39.9999 10.5397 39.3513 10.5397 38.5513V28.4105C10.5397 28.1245 10.6164 27.8449 10.7603 27.6069L16.0167 18.9148C16.338 18.3837 16.9369 18.1468 17.491 18.3319C18.0452 18.5168 18.4243 19.08 18.4243 19.7184V38.5513C18.4243 39.3513 17.8359 39.9999 17.1102 39.9999Z" fill="white"/>
<path d="M7.15835 24.2187C6.62771 23.9119 5.88104 24.0557 5.47717 24.7112L3.94235 27.249V39.9999H6.57051C7.29589 39.9999 7.88461 39.351 7.88461 38.5514V25.5146C7.88461 24.5815 7.16711 24.2279 7.15835 24.2187Z" fill="white"/>
<path d="M18.4243 38.5513V19.7184C18.4243 19.08 18.0452 18.5168 17.491 18.3319C16.9369 18.1468 16.338 18.3837 16.0167 18.9148L14.4819 21.4527V39.9999H17.1102C17.8359 39.9999 18.4243 39.3513 18.4243 38.5513Z" fill="white"/>
<path d="M27.6497 40H22.3933C21.6676 40 21.0792 39.3513 21.0792 38.5513V22.6157C21.0792 22.3297 21.156 22.0501 21.2999 21.8122L26.5563 13.12C26.8776 12.5889 27.4764 12.3521 28.0305 12.5371C28.5847 12.722 28.9638 13.2852 28.9638 13.9236V38.5513C28.9638 39.3513 28.3755 40 27.6497 40Z" fill="white"/>
<path d="M28.0305 12.5371C27.4764 12.3521 26.8776 12.5889 26.5563 13.12L25.0216 15.6581V40H27.6497C28.3755 40 28.9638 39.3513 28.9638 38.5513V13.9236C28.9638 13.2852 28.5847 12.722 28.0305 12.5371Z" fill="white"/>
<path d="M38.2564 40H32.9464C32.2132 40 31.6189 39.3509 31.6189 38.5503V16.8041C31.6189 16.474 31.722 16.1539 31.9111 15.8965L37.2211 8.67194C38.0046 7.60638 39.5839 8.2144 39.5839 9.57948V38.5503C39.5839 39.3509 38.9896 40 38.2564 40Z" fill="white"/>
<path d="M39.5839 9.57948C39.5839 8.2145 37.9886 7.60629 37.1973 8.67185L35.5612 10.8756V39.9999H38.2431C38.9836 39.9999 39.5839 39.3509 39.5839 38.5503V9.57948Z" fill="white"/>
<path d="M45 1.3109V6.59406C45 7.32204 44.4094 7.91287 43.6816 7.91287C42.9539 7.91287 42.3633 7.32204 42.3633 6.59406V5.06863L33.9873 15.5083C33.5988 15.9928 32.9247 16.1405 32.3692 15.8627L28.1373 13.7455L23.509 20.6895C23.1398 21.2434 22.4174 21.4351 21.8224 21.1379L17.5904 19.0208L12.9621 25.9648C12.593 26.5187 11.8705 26.7103 11.2755 26.4132L7.04355 24.296L0 34.8641V30.5085C0 30.2483 0.0773437 29.9933 0.221484 29.777L5.49492 21.8641C5.76905 21.4604 6.20657 21.2591 6.64717 21.2777C7.04145 21.3059 6.65719 21.1534 11.4135 23.5329L16.0418 16.5889C16.4109 16.035 17.1334 15.8433 17.7284 16.1405L21.9604 18.2576L26.5887 11.3136C26.9569 10.7606 27.6803 10.5681 28.2753 10.8652L32.5969 13.0272L40.9333 2.63762H38.4082C37.6805 2.63762 37.0898 2.0468 37.0898 1.31881C37.0898 0.590827 37.6805 0 38.4082 0H43.6816C44.4015 0 44.9947 0.582035 45 1.3109Z" fill="white"/>
<path d="M43.6816 0H38.4082C37.6805 0 37.0898 0.590827 37.0898 1.31881C37.0898 2.0468 37.6805 2.63762 38.4082 2.63762H40.9333L32.5969 13.0272L28.2753 10.8652C27.6803 10.5681 26.9569 10.7606 26.5887 11.3136L21.9604 18.2576L19.7754 17.1646V20.1139L21.8224 21.1379C22.4174 21.4351 23.1398 21.2434 23.509 20.6895L28.1373 13.7455L32.3692 15.8627C32.9247 16.1405 33.5988 15.9928 33.9873 15.5083L42.3633 5.06863V6.59406C42.3633 7.32204 42.9539 7.91287 43.6816 7.91287C44.4094 7.91287 45 7.32204 45 6.59406V1.3109C44.9947 0.582035 44.4015 0 43.6816 0Z" fill="white"/>
</svg>
