<svg width="22" height="22" viewBox="0 0 22 22" fill="none" xmlns="http://www.w3.org/2000/svg">
<path d="M7.1642 7.62002C7.36401 7.88817 7.7808 8.58004 7.93377 9.2676H14.074C14.2244 8.58906 14.6334 7.90794 14.8461 7.62002C15.0928 7.2887 14.9871 6.76916 14.4822 6.5904H7.52815C7.02326 6.76916 6.91756 7.2887 7.1642 7.62002Z" fill="#3C3C3C"/>
<path d="M14.3812 10.5568H7.62698L6.33921 12.2637C5.22546 13.7398 4.83874 15.6173 5.27788 17.4152C5.71143 19.1883 6.89995 20.6537 8.53834 21.4349C9.32596 21.8101 10.1522 22 10.9953 22H11C11.9638 21.9991 12.8984 21.7529 13.7779 21.2682C14.5415 20.847 15.1955 20.2699 15.7042 19.5836C16.213 18.8974 16.5765 18.1015 16.7608 17.2442C17.1342 15.5064 16.7368 13.6951 15.6707 12.2744L14.3812 10.5568ZM13.0771 17.3413C12.9517 18.0594 12.3913 18.6185 11.6643 18.811V18.93C11.6643 19.3052 11.3665 19.6099 10.9996 19.6099C10.9553 19.6099 10.7199 19.6051 10.5299 19.4109C10.4096 19.2876 10.3353 19.1178 10.3353 18.93V18.7758C9.84588 18.6369 9.40502 18.3667 9.0703 17.9885C8.82323 17.71 8.84428 17.2799 9.11627 17.028C9.38826 16.7758 9.80807 16.7969 10.0547 17.0753C10.282 17.3319 10.6292 17.4934 10.9996 17.5192C11.3837 17.5489 11.7588 17.2975 11.7692 17.102C11.8048 16.8961 11.5294 16.7139 11.2591 16.6121C11.171 16.579 11.0842 16.5455 10.9996 16.5119C10.4547 16.2958 9.80936 16.1308 9.44584 15.6336C9.20264 15.3005 9.10467 14.8794 9.16182 14.4725C9.25119 13.8343 9.70022 13.3135 10.3353 13.1046V12.9465C10.3353 12.5713 10.6331 12.2667 10.9996 12.2667C11.3665 12.2667 11.6643 12.5713 11.6643 12.9465V13.0801C12.2775 13.2464 12.6913 13.5954 12.7183 13.6186C12.9104 13.888 12.8928 14.2589 12.6801 14.5021C12.4777 14.7337 12.1421 14.7999 11.865 14.6607C11.8645 14.6602 11.8637 14.6594 11.8633 14.6594C11.5552 14.4183 11.0778 14.2494 10.701 14.4136C10.5772 14.4677 10.4457 14.5838 10.4784 14.7329C10.508 14.8682 10.6808 14.9357 10.7968 14.9778C11.1036 15.0977 11.4155 15.2077 11.7185 15.3379C12.1451 15.5206 12.5465 15.7427 12.8176 16.1428C13.0544 16.4922 13.1497 16.9253 13.0771 17.3413Z" fill="#3C3C3C"/>
<path d="M21.8392 3.81084L18.675 0.216599C18.4323 -0.0722211 17.9502 -0.0721781 17.7075 0.216599L14.5433 3.81084C14.3759 4.00095 14.3354 4.27143 14.4397 4.50223C14.544 4.73304 14.7738 4.88138 15.027 4.88138H16.2576V9.05254C16.2576 9.40852 16.5462 9.69713 16.9022 9.69713H19.4803C19.8363 9.69713 20.1248 9.40852 20.1248 9.05254V4.88138H21.3555C21.6087 4.88138 21.8385 4.73304 21.9428 4.50223C22.0471 4.27143 22.0066 4.00095 21.8392 3.81084Z" fill="#3C3C3C"/>
<path d="M5.74238 9.05258V4.88142H6.973C7.22626 4.88142 7.45606 4.73308 7.56034 4.50227C7.66463 4.27147 7.62411 4.00095 7.45675 3.81089L4.29253 0.216642C4.0498 -0.0721783 3.56774 -0.0721353 3.32501 0.216642L0.160793 3.81089C-0.00656968 4.001 -0.0470891 4.27147 0.0571958 4.50227C0.161481 4.73308 0.391277 4.88142 0.644535 4.88142H1.87516V9.05258C1.87516 9.40856 2.16374 9.69717 2.51969 9.69717H5.09781C5.4538 9.69717 5.74238 9.40856 5.74238 9.05258Z" fill="#3C3C3C"/>
</svg>
