<svg width="25" height="19" viewBox="0 0 25 19" fill="none" xmlns="http://www.w3.org/2000/svg">
<path d="M4.39453 7.79487C2.7791 7.79487 1.46484 6.48358 1.46484 4.8718C1.46484 3.26001 2.7791 1.94872 4.39453 1.94872C6.00996 1.94872 7.32422 3.26001 7.32422 4.8718C7.32422 6.48358 6.00996 7.79487 4.39453 7.79487Z" fill="#3C3C3C"/>
<path d="M14.6484 5.84615C13.033 5.84615 11.7188 4.53486 11.7188 2.92308C11.7188 1.31129 13.033 0 14.6484 0C16.2639 0 17.5781 1.31129 17.5781 2.92308C17.5781 4.53486 16.2639 5.84615 14.6484 5.84615Z" fill="#3C3C3C"/>
<path d="M24.2676 4.8718H21.3379C20.9334 4.8718 20.6055 5.19898 20.6055 5.60256C20.6055 6.00614 20.9334 6.33333 21.3379 6.33333H22.4994L14.9902 13.8255L13.0667 11.9063C12.7807 11.621 12.3169 11.621 12.0309 11.9063L6.38608 17.5385H0.732422C0.32793 17.5385 0 17.8657 0 18.2692C0 18.6728 0.32793 19 0.732422 19H6.68945C6.88374 19 7.07002 18.923 7.20732 18.7859L12.5488 13.4565L14.4724 15.3757C14.7584 15.6611 15.2221 15.6611 15.5082 15.3757L23.5352 7.36679V8.52564C23.5352 8.92922 23.8631 9.25641 24.2676 9.25641C24.6721 9.25641 25 8.92922 25 8.52564V5.60256C25 5.19898 24.6721 4.8718 24.2676 4.8718Z" fill="#3C3C3C"/>
<path d="M17.0764 6.57585C16.3803 7.03794 15.5454 7.30769 14.6484 7.30769C13.7515 7.30769 12.9166 7.03799 12.2205 6.57585C11.0354 7.36118 10.2539 8.70483 10.2539 10.2308V11.6125L10.9952 10.8729C11.4102 10.4588 11.962 10.2308 12.5488 10.2308C13.1357 10.2308 13.6875 10.4588 14.1025 10.8728L14.9902 11.7586L18.5483 8.20844C18.2035 7.54777 17.6949 6.98581 17.0764 6.57585Z" fill="#3C3C3C"/>
<path d="M1.9666 8.52457C0.781445 9.3099 0 10.6535 0 12.1795V16.0769H5.7793L8.78906 13.074V12.1795C8.78906 10.6535 8.00762 9.3099 6.82246 8.52457C6.12637 8.98671 5.29145 9.25641 4.39453 9.25641C3.49761 9.25641 2.6627 8.98671 1.9666 8.52457Z" fill="#3C3C3C"/>
</svg>
