<svg width="22" height="22" viewBox="0 0 22 22" fill="none" xmlns="http://www.w3.org/2000/svg">
<path d="M5.92962 14.0293H4.44217C4.13597 14.0293 3.88779 14.2774 3.88779 14.5836V22H6.484V14.5836C6.484 14.2775 6.23581 14.0293 5.92962 14.0293Z" fill="#3C3C3C"/>
<path d="M9.81493 10.7198H8.32749C8.02129 10.7198 7.7731 10.9679 7.7731 11.2741V22H10.3693V11.2741C10.3693 10.9679 10.1211 10.7198 9.81493 10.7198Z" fill="#3C3C3C"/>
<path d="M2.04185 17.0343H0.554404C0.248209 17.0343 2.14726e-05 17.2825 2.14726e-05 17.5887V21.4456C2.14726e-05 21.7518 0.248209 22 0.554404 22H2.59623V17.5887C2.59623 17.2825 2.34805 17.0343 2.04185 17.0343Z" fill="#3C3C3C"/>
<path d="M13.7002 7.08469H12.2128C11.9066 7.08469 11.6584 7.33288 11.6584 7.63907V22H14.2546V7.63907C14.2546 7.33288 14.0064 7.08469 13.7002 7.08469Z" fill="#3C3C3C"/>
<path d="M17.5855 3.65501H16.098C15.7918 3.65501 15.5437 3.9032 15.5437 4.20939V22H18.1399V4.20943C18.1399 3.90324 17.8916 3.65501 17.5855 3.65501Z" fill="#3C3C3C"/>
<path d="M21.4456 0H19.9582C19.652 0 19.4038 0.248188 19.4038 0.554383V21.9945H21.4456C21.7518 21.9945 22 21.7464 22 21.4402V0.554383C22 0.248188 21.7518 0 21.4456 0Z" fill="#3C3C3C"/>
<path d="M11.8905 3.24685V0.644789C11.8905 0.642984 11.8902 0.641266 11.8902 0.639504C11.8912 0.31698 11.6087 -0.0103555 11.246 0.000257812H8.5902C8.23425 0.000257812 7.94567 0.288836 7.94567 0.644789C7.94567 1.00074 8.23425 1.28932 8.5902 1.28932H9.6899L0.188783 10.7904C-0.0629277 11.0422 -0.0629277 11.4502 0.188783 11.7019C0.314638 11.8278 0.479595 11.8907 0.644509 11.8907C0.809423 11.8907 0.974423 11.8278 1.10024 11.7019L10.6014 2.20082V3.24685C10.6014 3.6028 10.89 3.89138 11.246 3.89138C11.6019 3.89138 11.8905 3.6028 11.8905 3.24685Z" fill="#3C3C3C"/>
</svg>
