<svg width="26" height="26" viewBox="0 0 26 26" fill="none" xmlns="http://www.w3.org/2000/svg">
<path d="M1.54793 10.83C1.0373 11.3422 0.750551 12.0359 0.750551 12.7591C0.750551 13.4822 1.03722 14.1759 1.54772 14.688C1.54793 14.6882 1.54814 14.6884 1.54835 14.6886L2.84309 15.981C2.84321 15.9811 2.84333 15.9812 2.84346 15.9813C3.07145 16.2087 3.25224 16.4789 3.37541 16.7764C3.49855 17.0738 3.56167 17.3926 3.56116 17.7145M1.54793 10.83L2.81061 17.7138M1.54793 10.83C1.54807 10.8299 1.54821 10.8298 1.54835 10.8296L1.54793 10.83ZM3.56116 17.7145C3.56116 17.7147 3.56116 17.715 3.56116 17.7153L2.81061 17.7138M3.56116 17.7145V17.7138H2.81061M3.56116 17.7145L3.56116 19.2289L2.81061 19.2297V17.7138M17.7122 3.55992H17.7142L2.31323 9.00571C2.47106 8.84808 2.59615 8.66079 2.68131 8.45463C2.76647 8.24846 2.81001 8.02749 2.80942 7.80443H3.55997V7.80355L3.55997 6.29053C3.55997 6.29046 3.55997 6.29038 3.55997 6.29031C3.56077 5.56689 3.84844 4.87331 4.3599 4.36168C4.8713 3.85012 5.5647 3.56222 6.28804 3.5611L7.80458 3.56111L7.80745 3.5611C8.45462 3.55862 9.07488 3.30182 9.5344 2.8461L9.53708 2.84342L10.8298 1.54834C10.83 1.54816 10.8302 1.54799 10.8303 1.54781C11.3425 1.03726 12.0362 0.750551 12.7594 0.750551C13.4826 0.750551 14.1763 1.03729 14.6885 1.54789C14.6886 1.54804 14.6888 1.54819 14.6889 1.54834L15.9831 2.84367L15.9855 2.84602C16.4448 3.30171 17.0651 3.55818 17.7122 3.55992ZM4.36109 21.1578C3.84963 20.6461 3.56196 19.9525 3.56116 19.2291L21.9588 17.7138V17.7141C21.9588 17.7145 21.9588 17.7149 21.9588 17.7153L21.9588 19.2289C21.958 19.9524 21.6704 20.6461 21.1588 21.1578C20.6473 21.6694 19.9537 21.9573 19.2302 21.9583L17.7142 21.9583L17.7113 21.9583C17.0641 21.9608 16.4439 22.2176 15.9843 22.6733L15.9819 22.6758L14.6887 23.9701C14.6886 23.9703 14.6884 23.9704 14.6882 23.9706C14.1762 24.4814 13.4826 24.7682 12.7594 24.7682C12.0359 24.7682 11.342 24.4812 10.83 23.9701L9.53541 22.6755L9.53382 22.6739C9.07475 22.2176 8.45439 21.9605 7.80712 21.9583H7.80458H6.28972C5.5662 21.9573 4.87261 21.6694 4.36109 21.1578ZM23.9704 14.6886L22.6768 15.981L21.9576 7.80298L22.7081 7.80443H21.9576V7.80409C21.9571 8.12587 22.0202 8.44457 22.1433 8.74188C22.2666 9.03954 22.4475 9.30986 22.6757 9.53729L23.9704 10.8296C23.9705 10.8298 23.9707 10.8299 23.9709 10.8301C24.4815 11.3422 24.7682 12.0359 24.7682 12.7591C24.7682 13.4823 24.4815 14.176 23.9709 14.6881C23.9707 14.6883 23.9706 14.6885 23.9704 14.6886ZM21.9576 6.28934L22.7081 6.28858H21.9576V6.28934ZM15.1608 9.22512L11.5726 12.8122L10.3582 11.5971C10.3519 11.5908 10.3455 11.5846 10.339 11.5785C10.0279 11.2887 9.61654 11.1309 9.19145 11.1384C8.76636 11.1459 8.36078 11.3181 8.06014 11.6187C7.75951 11.9193 7.5873 12.3249 7.5798 12.75C7.5723 13.1751 7.7301 13.5865 8.01994 13.8976C8.02595 13.904 8.03209 13.9104 8.03833 13.9166L10.4114 16.2896C10.4115 16.2898 10.4117 16.2899 10.4119 16.2901C10.564 16.4427 10.7448 16.5638 10.9437 16.6465C11.143 16.7293 11.3566 16.7719 11.5723 16.7719C11.788 16.7719 12.0017 16.7293 12.2009 16.6465C12.3999 16.5638 12.5806 16.4427 12.7327 16.2901C12.7329 16.2899 12.7331 16.2898 12.7333 16.2896L17.4436 11.5794C17.4627 11.5626 17.4812 11.5448 17.4988 11.5259C17.7886 11.2148 17.9464 10.8034 17.9389 10.3783C17.9314 9.95322 17.7592 9.54763 17.4586 9.24701C17.158 8.94638 16.7524 8.77418 16.3273 8.76668C15.9022 8.75918 15.4908 8.91697 15.1798 9.2068C15.1733 9.2128 15.167 9.2189 15.1608 9.22512ZM19.23 2.80937L19.229 3.55992C19.2292 3.55992 19.2294 3.55992 19.2295 3.55992H19.23V2.80937Z" stroke="#FF3D00" stroke-width="1.5011" stroke-linejoin="round"/>
</svg>
