<svg width="571" height="557" viewBox="0 0 571 557" fill="none" xmlns="http://www.w3.org/2000/svg">
<path d="M406 91H570" stroke="#A6A6A6" stroke-dasharray="10 10"/>
<path d="M285 346L573 346" stroke="#A6A6A6" stroke-dasharray="10 10"/>
<g filter="url(#filter0_d_51_2685)">
<path d="M151 218.5C151 148.084 208.084 91 278.5 91H406V218.5C406 288.916 348.916 346 278.5 346C208.084 346 151 288.916 151 218.5Z" fill="white"/>
</g>
<path d="M210.013 256.616V238.784H213.034L218.929 250.623L224.823 238.784H227.845V256.616H224.7V245.967L219.523 256.616H218.334L213.158 245.967V256.616H210.013ZM237.339 256.988C235.994 256.988 234.813 256.687 233.798 256.084C232.782 255.481 231.99 254.652 231.42 253.595C230.859 252.53 230.578 251.308 230.578 249.929C230.578 248.534 230.867 247.308 231.445 246.252C232.023 245.187 232.819 244.357 233.835 243.762C234.85 243.168 236.018 242.871 237.339 242.871C238.685 242.871 239.866 243.172 240.881 243.775C241.905 244.377 242.701 245.211 243.271 246.276C243.841 247.333 244.125 248.551 244.125 249.929C244.125 251.316 243.837 252.542 243.259 253.607C242.689 254.664 241.892 255.494 240.869 256.096C239.853 256.691 238.677 256.988 237.339 256.988ZM237.339 253.843C238.421 253.843 239.226 253.479 239.754 252.753C240.291 252.018 240.559 251.077 240.559 249.929C240.559 248.741 240.287 247.791 239.742 247.081C239.205 246.371 238.404 246.016 237.339 246.016C236.605 246.016 236.002 246.181 235.531 246.512C235.061 246.842 234.71 247.3 234.479 247.886C234.256 248.472 234.144 249.153 234.144 249.929C234.144 251.126 234.413 252.08 234.949 252.79C235.494 253.492 236.291 253.843 237.339 253.843ZM252.273 256.988C251.043 256.988 249.965 256.678 249.041 256.059C248.116 255.44 247.394 254.598 246.873 253.533C246.362 252.468 246.106 251.267 246.106 249.929C246.106 248.567 246.366 247.358 246.886 246.301C247.414 245.236 248.153 244.398 249.102 243.787C250.052 243.176 251.166 242.871 252.446 242.871C253.717 242.871 254.786 243.18 255.653 243.8C256.52 244.419 257.176 245.261 257.622 246.326C258.068 247.391 258.291 248.592 258.291 249.929C258.291 251.267 258.064 252.468 257.61 253.533C257.164 254.598 256.495 255.44 255.604 256.059C254.712 256.678 253.602 256.988 252.273 256.988ZM252.817 253.991C253.569 253.991 254.167 253.822 254.613 253.483C255.067 253.145 255.393 252.67 255.591 252.059C255.79 251.448 255.889 250.738 255.889 249.929C255.889 249.12 255.79 248.41 255.591 247.799C255.393 247.189 255.075 246.714 254.638 246.375C254.209 246.037 253.643 245.868 252.941 245.868C252.19 245.868 251.571 246.053 251.084 246.425C250.605 246.788 250.25 247.279 250.019 247.899C249.788 248.509 249.672 249.186 249.672 249.929C249.672 250.681 249.784 251.366 250.006 251.985C250.229 252.596 250.572 253.083 251.034 253.446C251.497 253.81 252.091 253.991 252.817 253.991ZM255.889 256.616V247.453H255.468V238.784H258.861V256.616H255.889ZM268.544 256.988C267.174 256.988 265.965 256.695 264.916 256.109C263.876 255.514 263.059 254.701 262.464 253.669C261.878 252.629 261.585 251.44 261.585 250.103C261.585 248.642 261.874 247.37 262.452 246.289C263.03 245.207 263.826 244.369 264.842 243.775C265.857 243.172 267.025 242.871 268.346 242.871C269.75 242.871 270.943 243.201 271.925 243.862C272.908 244.522 273.634 245.451 274.105 246.648C274.575 247.845 274.74 249.252 274.6 250.871H271.269V249.632C271.269 248.27 271.05 247.292 270.612 246.697C270.183 246.095 269.477 245.793 268.495 245.793C267.347 245.793 266.501 246.144 265.956 246.846C265.42 247.539 265.151 248.567 265.151 249.929C265.151 251.176 265.42 252.142 265.956 252.827C266.501 253.504 267.298 253.843 268.346 253.843C269.007 253.843 269.572 253.698 270.043 253.409C270.513 253.12 270.873 252.703 271.12 252.158L274.489 253.124C273.985 254.346 273.188 255.296 272.099 255.973C271.017 256.649 269.832 256.988 268.544 256.988ZM264.111 250.871V248.369H272.978V250.871H264.111ZM277.396 256.616V243.242H280.368V246.512L280.046 246.091C280.22 245.628 280.451 245.207 280.74 244.827C281.029 244.448 281.384 244.134 281.805 243.886C282.127 243.688 282.477 243.535 282.857 243.428C283.237 243.313 283.629 243.242 284.034 243.218C284.438 243.185 284.843 243.193 285.247 243.242V246.388C284.876 246.272 284.442 246.235 283.947 246.276C283.46 246.309 283.018 246.421 282.622 246.611C282.226 246.792 281.891 247.036 281.619 247.341C281.346 247.638 281.14 247.993 281 248.406C280.859 248.811 280.789 249.269 280.789 249.781V256.616H277.396ZM296.717 256.616V250.301C296.717 249.995 296.7 249.607 296.667 249.137C296.634 248.658 296.531 248.179 296.358 247.7C296.185 247.222 295.9 246.821 295.503 246.499C295.115 246.177 294.562 246.016 293.844 246.016C293.555 246.016 293.246 246.062 292.915 246.152C292.585 246.243 292.275 246.421 291.987 246.685C291.698 246.941 291.458 247.321 291.268 247.824C291.087 248.328 290.996 248.997 290.996 249.83L289.064 248.914C289.064 247.857 289.279 246.867 289.708 245.942C290.137 245.017 290.781 244.27 291.64 243.701C292.507 243.131 293.596 242.846 294.909 242.846C295.957 242.846 296.812 243.024 297.472 243.379C298.133 243.734 298.645 244.183 299.008 244.728C299.379 245.273 299.644 245.843 299.8 246.437C299.957 247.023 300.052 247.56 300.085 248.047C300.118 248.534 300.135 248.889 300.135 249.112V256.616H296.717ZM287.578 256.616V243.242H290.575V247.676H290.996V256.616H287.578ZM303.348 256.616V238.784H314.989V241.93H306.716V245.744H313.503V248.889H306.716V253.471H314.989V256.616H303.348ZM317.957 256.616V238.784H325.486C325.659 238.784 325.89 238.793 326.179 238.809C326.477 238.817 326.741 238.842 326.972 238.883C328.037 239.048 328.908 239.399 329.585 239.936C330.27 240.473 330.774 241.15 331.096 241.967C331.418 242.776 331.579 243.68 331.579 244.679C331.579 246.173 331.207 247.453 330.464 248.518C329.721 249.574 328.557 250.227 326.972 250.474L325.486 250.573H321.325V256.616H317.957ZM328.012 256.616L324.495 249.36L327.963 248.691L331.826 256.616H328.012ZM321.325 247.428H325.337C325.511 247.428 325.701 247.42 325.907 247.403C326.113 247.387 326.303 247.354 326.477 247.304C326.931 247.18 327.281 246.974 327.529 246.685C327.777 246.388 327.946 246.062 328.037 245.707C328.136 245.343 328.185 245.001 328.185 244.679C328.185 244.357 328.136 244.018 328.037 243.663C327.946 243.3 327.777 242.974 327.529 242.685C327.281 242.388 326.931 242.177 326.477 242.054C326.303 242.004 326.113 241.971 325.907 241.954C325.701 241.938 325.511 241.93 325.337 241.93H321.325V247.428ZM334.549 256.616V238.784H342.078C342.251 238.784 342.482 238.793 342.771 238.809C343.068 238.817 343.333 238.842 343.564 238.883C344.629 239.048 345.5 239.399 346.177 239.936C346.862 240.473 347.365 241.15 347.687 241.967C348.009 242.776 348.17 243.68 348.17 244.679C348.17 245.678 348.005 246.586 347.675 247.403C347.353 248.212 346.85 248.885 346.164 249.422C345.487 249.958 344.62 250.309 343.564 250.474C343.333 250.507 343.068 250.532 342.771 250.549C342.474 250.565 342.243 250.573 342.078 250.573H337.917V256.616H334.549ZM337.917 247.428H341.929C342.103 247.428 342.292 247.42 342.499 247.403C342.705 247.387 342.895 247.354 343.068 247.304C343.522 247.18 343.873 246.974 344.121 246.685C344.369 246.388 344.538 246.062 344.629 245.707C344.728 245.343 344.777 245.001 344.777 244.679C344.777 244.357 344.728 244.018 344.629 243.663C344.538 243.3 344.369 242.974 344.121 242.685C343.873 242.388 343.522 242.177 343.068 242.054C342.895 242.004 342.705 241.971 342.499 241.954C342.292 241.938 342.103 241.93 341.929 241.93H337.917V247.428Z" fill="#171717"/>
<path d="M269.887 230.74L284.558 205.354L255.217 205.354L269.887 230.74Z" fill="#F8F8F8"/>
<path d="M255.668 189.132L240.997 214.567L270.338 214.567L255.668 189.132Z" fill="#FF8D00"/>
<path d="M270.338 214.567L285.009 189.132L255.667 189.132L270.338 214.567Z" fill="#FFC405"/>
<path d="M255.667 189.131L285.009 189.131L270.338 163.746L255.667 189.131Z" fill="#FF8D00"/>
<path d="M285.009 189.131L299.68 163.746L270.338 163.746L285.009 189.131Z" fill="#FFC405"/>
<path d="M299.229 163.746L284.559 189.131L313.9 189.131L299.229 163.746Z" fill="#F8F8F8"/>
<path d="M241.347 214.567L256.018 189.132L226.677 189.132L241.347 214.567Z" fill="#F8F8F8"/>
<path d="M299.229 230.74L284.558 205.354L269.887 230.74L299.229 230.74Z" fill="#FF8D00"/>
<path d="M299.229 179.918L284.559 205.354L313.9 205.354L299.229 179.918Z" fill="#FF8D00"/>
<path d="M284.559 205.354L299.229 230.74L313.9 205.354L284.559 205.354Z" fill="#FFC405"/>
<defs>
<filter id="filter0_d_51_2685" x="0.390625" y="0.634373" width="556.219" height="556.219" filterUnits="userSpaceOnUse" color-interpolation-filters="sRGB">
<feFlood flood-opacity="0" result="BackgroundImageFix"/>
<feColorMatrix in="SourceAlpha" type="matrix" values="0 0 0 0 0 0 0 0 0 0 0 0 0 0 0 0 0 0 127 0" result="hardAlpha"/>
<feOffset dy="60.2437"/>
<feGaussianBlur stdDeviation="75.3047"/>
<feComposite in2="hardAlpha" operator="out"/>
<feColorMatrix type="matrix" values="0 0 0 0 0 0 0 0 0 0 0 0 0 0 0 0 0 0 0.05 0"/>
<feBlend mode="normal" in2="BackgroundImageFix" result="effect1_dropShadow_51_2685"/>
<feBlend mode="normal" in="SourceGraphic" in2="effect1_dropShadow_51_2685" result="shape"/>
</filter>
</defs>
</svg>
